<?xml version="1.0" encoding="UTF-8"?>
<svg xmlns="http://www.w3.org/2000/svg" viewBox="0 0 800 1000" role="img" aria-label="Family Dinner">
  <title>Family Dinner</title>
  <rect width="800" height="1000" fill="#fffefb"/>
  <g fill="#fff" stroke="#2c2048" stroke-linejoin="round" stroke-linecap="round" stroke-width="6">
    <rect x="80" y="90" width="200" height="150" rx="8"/><circle cx="180" cy="150" r="26"/><line x1="220.0" y1="150.0" x2="254.0" y2="150.0"/><line x1="214.6" y1="170.0" x2="244.1" y2="187.0"/><line x1="200.0" y1="184.6" x2="217.0" y2="214.1"/><line x1="180.0" y1="190.0" x2="180.0" y2="224.0"/><line x1="160.0" y1="184.6" x2="143.0" y2="214.1"/><line x1="145.4" y1="170.0" x2="115.9" y2="187.0"/><line x1="140.0" y1="150.0" x2="106.0" y2="150.0"/><line x1="145.4" y1="130.0" x2="115.9" y2="113.0"/><line x1="160.0" y1="115.4" x2="143.0" y2="85.9"/><line x1="180.0" y1="110.0" x2="180.0" y2="76.0"/><line x1="200.0" y1="115.4" x2="217.0" y2="85.9"/><line x1="214.6" y1="130.0" x2="244.1" y2="113.0"/><ellipse cx="400" cy="780" rx="240" ry="70"/><circle cx="320" cy="740" r="24.5"/><path d="M320 715.5 q10 -14.0 36 -17.5" fill="none"/><ellipse cx="329.8" cy="712.7" rx="7.699999999999999" ry="4.199999999999999"/><path d="M372.0 730 h56.0 l-8.0 36.0 h-40.0 z"/><ellipse cx="400" cy="730" rx="32.0" ry="16.0"/><circle cx="390.4" cy="722.8" r="7.2"/><circle cx="407.2" cy="718.8" r="8.0"/><circle cx="400" cy="726.8" r="6.4"/><circle cx="400" cy="706.8" r="5.6000000000000005"/><rect x="470" y="710" width="50" height="55" rx="6"/><circle cx="240" cy="647.5" r="49.0"/><path d="M191.0 644.7 q22.05 -58.8 49.0 -58.8 q26.950000000000003 0 49.0 58.8"/><circle cx="224.6" cy="641.9" r="4.8999999999999995"/><circle cx="255.4" cy="641.9" r="4.8999999999999995"/><path d="M227.4 662.9 q12.6 9.799999999999999 25.2 0" fill="none"/><path d="M212.0 690.9 L201.5 764.4 h77.0 L268.0 690.9 Z"/><line x1="227.4" y1="764.4" x2="227.4" y2="770"/><line x1="252.6" y1="764.4" x2="252.6" y2="770"/><line x1="212.0" y1="704.9" x2="191.0" y2="739.9"/><line x1="268.0" y1="704.9" x2="289.0" y2="739.9"/><circle cx="560" cy="647.5" r="49.0"/><path d="M515.0 647.5 q10.78 -63.7 45.0 -63.7 q35.28 0 45.0 63.7"/><circle cx="544.6" cy="641.9" r="4.8999999999999995"/><circle cx="575.4" cy="641.9" r="4.8999999999999995"/><path d="M547.4 662.9 q12.6 9.799999999999999 25.2 0" fill="none"/><path d="M532.0 690.9 L521.5 764.4 h77.0 L588.0 690.9 Z"/><line x1="547.4" y1="764.4" x2="547.4" y2="770"/><line x1="572.6" y1="764.4" x2="572.6" y2="770"/><line x1="532.0" y1="704.9" x2="511.0" y2="739.9"/><line x1="588.0" y1="704.9" x2="609.0" y2="739.9"/><line x1="40" y1="860" x2="760" y2="860"/>
  </g>
</svg>
