<?xml version="1.0" encoding="UTF-8"?>
<svg xmlns="http://www.w3.org/2000/svg" viewBox="0 0 800 1000" role="img" aria-label="Ice Cream">
  <title>Ice Cream</title>
  <rect width="800" height="1000" fill="#fffefb"/>
  <g fill="#fff" stroke="#2c2048" stroke-linejoin="round" stroke-linecap="round" stroke-width="9">
    <path d="M250 520 h300 l-150 280 z"/><circle cx="310" cy="450" r="70"/><circle cx="400" cy="400" r="78"/><circle cx="490" cy="450" r="70"/><circle cx="400" cy="330" r="24"/><line x1="40" y1="860" x2="760" y2="860"/><path d="M70 860 q8 -16 16 0" fill="none"/><path d="M148 860 q8 -16 16 0" fill="none"/><path d="M226 860 q8 -16 16 0" fill="none"/><path d="M304 860 q8 -16 16 0" fill="none"/><path d="M382 860 q8 -16 16 0" fill="none"/><path d="M460 860 q8 -16 16 0" fill="none"/><path d="M538 860 q8 -16 16 0" fill="none"/><path d="M616 860 q8 -16 16 0" fill="none"/><path d="M694 860 q8 -16 16 0" fill="none"/>
  </g>
</svg>
