<?xml version="1.0" encoding="UTF-8"?>
<svg xmlns="http://www.w3.org/2000/svg" viewBox="0 0 600 520" role="img" aria-label="Cupcake Stand">
  <title>Cupcake Stand — Vaphia coloring page</title>
  <rect width="600" height="520" fill="#fffefb"/>
  <rect x="18" y="18" width="564" height="484" rx="28" fill="#fff" stroke="#2c2048" stroke-width="4"/>
  <text x="40" y="56" font-family="Nunito, ui-rounded, sans-serif" font-size="22" font-weight="800" fill="#2c2048">Vaphia</text>
  <text x="560" y="56" text-anchor="end" font-family="Nunito, ui-rounded, sans-serif" font-size="16" fill="#6d6280">5-7</text>
  <g fill="#fff" stroke="#2c2048" stroke-linejoin="round" stroke-linecap="round" stroke-width="7">
    <path d="M117.0 280 h126.0 l-18.0 81.0 h-90.0 z"/><ellipse cx="180" cy="280" rx="72.0" ry="36.0"/><circle cx="158.4" cy="263.8" r="16.2"/><circle cx="196.2" cy="254.8" r="18.0"/><circle cx="180" cy="272.8" r="14.4"/><circle cx="180" cy="227.8" r="12.6"/><path d="M230 250 h140 l-20 90 h-100 z"/><ellipse cx="300" cy="250" rx="80" ry="40"/><circle cx="276" cy="232" r="18"/><circle cx="318" cy="222" r="20"/><circle cx="300" cy="242" r="16"/><circle cx="300" cy="192" r="14"/><path d="M367.0 280 h126.0 l-18.0 81.0 h-90.0 z"/><ellipse cx="430" cy="280" rx="72.0" ry="36.0"/><circle cx="408.4" cy="263.8" r="16.2"/><circle cx="446.2" cy="254.8" r="18.0"/><circle cx="430" cy="272.8" r="14.4"/><circle cx="430" cy="227.8" r="12.6"/><rect x="120" y="390" width="360" height="28" rx="8"/>
  </g>
</svg>
